<svg xmlns="http://www.w3.org/2000/svg" width="234" height="25.131" viewBox="0 0 234 25.131">
  <g id="Group_6" data-name="Group 6" transform="translate(-75.087 -209.002)">
    <g id="Group_1" data-name="Group 1" transform="translate(75.087 209.002)">
      <path id="Path_2" data-name="Path 2" d="M296.578,250.226q-.262,1.807-.484,4.045t-.393,4.66q-.171,2.422-.314,4.857t-.249,4.582h3.98q.079-2.644.209-5.76t.393-6.284q.473,1.1,1.051,2.435t1.142,2.671q.565,1.335,1.09,2.553t.893,2.081h2.854q.368-.864.893-2.081t1.09-2.553q.564-1.335,1.142-2.671t1.051-2.435q.261,3.168.393,6.284t.21,5.76h3.98q-.1-2.147-.249-4.582t-.314-4.857q-.171-2.421-.393-4.66t-.484-4.045H310.35q-.473.864-1.089,2.134t-1.287,2.749q-.669,1.48-1.325,3.024t-1.234,2.906l-1.234-2.906q-.657-1.544-1.326-3.024t-1.286-2.749q-.618-1.27-1.09-2.134Z" transform="translate(-295.138 -249.807)" fill="#3a9848"/>
      <path id="Path_3" data-name="Path 3" d="M426.013,268.37v-3.43h-8.771v-4.372h7.252v-3.351h-7.252v-3.561h8.169v-3.43H413.157V268.37Z" transform="translate(-390.64 -249.807)" fill="#3a9848"/>
      <path id="Path_4" data-name="Path 4" d="M491.381,268.37q1.079-2.276,2.126-4.737t1.989-4.87q.943-2.408,1.736-4.6t1.4-3.932h-4.348q-.512,1.585-1.135,3.4t-1.27,3.621q-.647,1.8-1.253,3.457t-1.118,2.847q-.543-1.2-1.135-2.855l-1.24-3.458q-.647-1.8-1.271-3.621t-1.133-3.393h-4.5q.578,1.728,1.374,3.928t1.744,4.607q.948,2.406,2,4.865t2.137,4.745Z" transform="translate(-444.916 -249.807)" fill="#3a9848"/>
      <path id="Path_5" data-name="Path 5" d="M578.349,263.125a10.236,10.236,0,0,1-2-.8l-1.152,3.247a9.616,9.616,0,0,0,.9.445,9.814,9.814,0,0,0,1.283.445,14.061,14.061,0,0,0,1.715.353,14.9,14.9,0,0,0,2.173.144,8.591,8.591,0,0,0,5.367-1.4,4.726,4.726,0,0,0,1.781-3.94,6.427,6.427,0,0,0-.34-2.226,4.324,4.324,0,0,0-1.034-1.6,6.583,6.583,0,0,0-1.741-1.191q-1.048-.51-2.461-1.034-.681-.236-1.244-.458a5.85,5.85,0,0,1-.995-.5,2.288,2.288,0,0,1-.668-.615,1.436,1.436,0,0,1-.236-.838,1.369,1.369,0,0,1,.642-1.244,4.1,4.1,0,0,1,2.108-.406,7.32,7.32,0,0,1,2.238.3,11.208,11.208,0,0,1,1.689.694l1.178-3.22a11.1,11.1,0,0,0-5.368-1.257,9.4,9.4,0,0,0-2.775.38,6.112,6.112,0,0,0-2.095,1.087,4.836,4.836,0,0,0-1.335,1.715,5.284,5.284,0,0,0-.471,2.265,4.672,4.672,0,0,0,.445,2.134,4.877,4.877,0,0,0,1.152,1.493,6.558,6.558,0,0,0,1.6,1.021q.89.406,1.78.72a12,12,0,0,1,2.88,1.27,1.754,1.754,0,0,1,.838,1.479,2.1,2.1,0,0,1-.131.759,1.316,1.316,0,0,1-.471.589,2.622,2.622,0,0,1-.9.393,5.889,5.889,0,0,1-1.427.144A10.387,10.387,0,0,1,578.349,263.125Z" transform="translate(-521.763 -248.031)" fill="#3a9848"/>
      <path id="Path_6" data-name="Path 6" d="M682.542,250.226q-.262,1.807-.484,4.045t-.393,4.66q-.171,2.422-.314,4.857t-.249,4.582h3.98q.079-2.644.21-5.76t.393-6.284q.473,1.1,1.051,2.435t1.142,2.671q.565,1.335,1.09,2.553t.893,2.081h2.854q.368-.864.893-2.081t1.09-2.553q.564-1.335,1.142-2.671t1.051-2.435q.261,3.168.393,6.284t.21,5.76h3.98q-.1-2.147-.249-4.582t-.314-4.857q-.17-2.421-.393-4.66t-.484-4.045h-3.718q-.473.864-1.089,2.134t-1.287,2.749q-.669,1.48-1.325,3.024t-1.234,2.906l-1.234-2.906q-.657-1.544-1.326-3.024t-1.286-2.749q-.617-1.27-1.089-2.134Z" transform="translate(-607.465 -249.807)" fill="#3a9848"/>
      <path id="Path_7" data-name="Path 7" d="M801.65,275.717s-3.9.859-3.9,3.437V289h3.9Z" transform="translate(-701.857 -270.435)" fill="#3a9848"/>
      <path id="Path_8" data-name="Path 8" d="M795.526,251.309a10.215,10.215,0,0,0,.471,2.758c.206-.488.589-.718,1.738-1.063,1.119-.345,2.209-.776,2.209-2.069a2.245,2.245,0,0,0-2.327-2.27C796.115,248.666,795.526,249.844,795.526,251.309Z" transform="translate(-700.058 -248.545)" fill="#3a9848"/>
      <path id="Path_9" data-name="Path 9" d="M655.842,275.717s-3.9.859-3.9,3.437V289h3.9Z" transform="translate(-583.867 -270.435)" fill="#3a9848"/>
      <path id="Path_10" data-name="Path 10" d="M649.718,251.309a10.22,10.22,0,0,0,.471,2.758c.206-.488.589-.718,1.738-1.063,1.119-.345,2.209-.776,2.209-2.069a2.246,2.246,0,0,0-2.327-2.27C650.307,248.666,649.718,249.844,649.718,251.309Z" transform="translate(-582.068 -248.545)" fill="#3a9848"/>
    </g>
  </g>
  <text id="WAREHOUSE" transform="translate(106 19.131)" fill="#1f5023" stroke="rgba(0,0,0,0)" stroke-width="1" font-size="18" font-family="Montserrat-Bold, Montserrat" font-weight="700"><tspan x="0" y="0">WAREHOUSE</tspan></text>
</svg>
