<svg xmlns="http://www.w3.org/2000/svg" width="138.333" height="131" viewBox="0 0 138.333 131">
  <path id="Union_1" data-name="Union 1" d="M38.849,51.69H19.507l1.965-7.237H38.481A6.016,6.016,0,0,0,44.5,38.437V32.343l7.244,1.969V38.8A12.892,12.892,0,0,1,38.849,51.69ZM44.5,13.253a6.016,6.016,0,0,0-6.016-6.016H32.523L34.488,0h4.361A12.892,12.892,0,0,1,51.741,12.892V32.009L44.5,30.04ZM13.26,7.237a6.017,6.017,0,0,0-6.017,6.016V18.97L0,17V12.892A12.892,12.892,0,0,1,12.892,0H32.186L30.221,7.237Zm2.845,23.014c-3.427-1.882-7.5-6.495-5.449-15.1,0,0,13.3,2.164,11.16,15.217.008.086,1.007,2.77,1.874,6.024l.835-3.1c-.134-10.11,4.133-18.477,16.782-19.325,0,0,2.381,13.316-7.883,19.635A13.007,13.007,0,0,1,26.7,34.736c2.017-7,5.265-10.96,8.293-13.4-3.313,2.089-7.545,5.992-10.052,14.434-.239.732-1.316,5.718-1.714,7.575h-1.41L23.35,37.65c-.618-1.98-1.868-5.95-2.118-6.5a29.051,29.051,0,0,0-7.339-10.276c1.526,2.141,4.871,6.129,6.343,10.743A14.955,14.955,0,0,1,16.106,30.251ZM7.244,38.437a6.017,6.017,0,0,0,6.017,6.016h5.91L17.205,51.69H12.892A12.892,12.892,0,0,1,0,38.8V19.3l7.244,1.969Z" transform="translate(43.296)" fill="#3a9848" fill-rule="evenodd"/>
  <g id="Group_1" data-name="Group 1" transform="translate(0 69)">
    <path id="Path_2" data-name="Path 2" d="M297.132,250.226q-.363,2.5-.671,5.6t-.544,6.454q-.236,3.354-.435,6.726t-.345,6.346h5.511q.109-3.662.29-7.977t.544-8.7q.654,1.523,1.455,3.372t1.582,3.7q.782,1.849,1.51,3.535t1.237,2.883h3.952q.509-1.2,1.237-2.883t1.51-3.535q.781-1.849,1.582-3.7T317,258.675q.362,4.388.544,8.7t.29,7.977h5.511q-.145-2.973-.344-6.346t-.435-6.726q-.236-3.353-.544-6.454t-.671-5.6h-5.149q-.654,1.2-1.509,2.955t-1.782,3.807q-.927,2.049-1.836,4.188T309.37,265.2l-1.709-4.025q-.909-2.139-1.836-4.188t-1.781-3.807q-.855-1.758-1.509-2.955Z" transform="translate(-295.138 -249.646)" fill="#3a9848"/>
    <path id="Path_3" data-name="Path 3" d="M430.961,275.354V270.6H418.814v-6.055h10.044v-4.641H418.814v-4.931h11.313v-4.75h-16.97v25.128Z" transform="translate(-381.974 -249.646)" fill="#3a9848"/>
    <path id="Path_4" data-name="Path 4" d="M495.673,275.354q1.494-3.152,2.945-6.561t2.754-6.745q1.305-3.335,2.4-6.377t1.943-5.445H499.7q-.709,2.194-1.572,4.71t-1.759,5.015q-.9,2.5-1.736,4.788t-1.548,3.943q-.752-1.665-1.572-3.954l-1.717-4.789q-.9-2.5-1.76-5.015t-1.569-4.7h-6.237q.8,2.393,1.9,5.44t2.415,6.38q1.313,3.333,2.773,6.737t2.96,6.571Z" transform="translate(-431.324 -249.646)" fill="#3a9848"/>
    <path id="Path_5" data-name="Path 5" d="M579.563,268.935a14.179,14.179,0,0,1-2.774-1.106l-1.6,4.5a13.345,13.345,0,0,0,1.251.616,13.583,13.583,0,0,0,1.777.616,19.471,19.471,0,0,0,2.375.489,20.632,20.632,0,0,0,3.009.2q4.967,0,7.433-1.94a6.545,6.545,0,0,0,2.466-5.457,8.9,8.9,0,0,0-.471-3.082,5.99,5.99,0,0,0-1.433-2.212,9.119,9.119,0,0,0-2.411-1.65q-1.451-.707-3.409-1.432-.943-.326-1.722-.634a8.1,8.1,0,0,1-1.378-.689,3.17,3.17,0,0,1-.925-.852,1.989,1.989,0,0,1-.326-1.16,1.9,1.9,0,0,1,.889-1.722,5.685,5.685,0,0,1,2.919-.562,10.137,10.137,0,0,1,3.1.417,15.517,15.517,0,0,1,2.339.961l1.632-4.46a15.367,15.367,0,0,0-7.434-1.74,13.022,13.022,0,0,0-3.843.526,8.466,8.466,0,0,0-2.9,1.5,6.7,6.7,0,0,0-1.849,2.375,7.318,7.318,0,0,0-.653,3.137,6.47,6.47,0,0,0,.616,2.955,6.753,6.753,0,0,0,1.6,2.067,9.084,9.084,0,0,0,2.212,1.414q1.232.562,2.466,1a16.617,16.617,0,0,1,3.989,1.759,2.429,2.429,0,0,1,1.16,2.049,2.9,2.9,0,0,1-.181,1.051,1.821,1.821,0,0,1-.653.816,3.63,3.63,0,0,1-1.251.544,8.154,8.154,0,0,1-1.976.2A14.388,14.388,0,0,1,579.563,268.935Z" transform="translate(-501.197 -248.031)" fill="#3a9848"/>
    <path id="Path_6" data-name="Path 6" d="M683.1,250.226q-.363,2.5-.671,5.6t-.544,6.454q-.236,3.354-.435,6.726t-.345,6.346h5.511q.109-3.662.29-7.977t.544-8.7q.654,1.523,1.455,3.372t1.582,3.7q.782,1.849,1.51,3.535t1.237,2.883h3.952q.509-1.2,1.237-2.883t1.51-3.535q.781-1.849,1.582-3.7t1.455-3.372q.362,4.388.544,8.7t.29,7.977h5.511q-.145-2.973-.344-6.346t-.435-6.726q-.236-3.353-.544-6.454t-.671-5.6h-5.149q-.654,1.2-1.509,2.955t-1.782,3.807q-.927,2.049-1.836,4.188t-1.709,4.025q-.8-1.885-1.709-4.025t-1.836-4.188q-.927-2.048-1.781-3.807t-1.509-2.955Z" transform="translate(-579.121 -249.646)" fill="#3a9848"/>
    <path id="Path_7" data-name="Path 7" d="M803.152,275.717s-5.4,1.19-5.4,4.759V294.11h5.4Z" transform="translate(-664.947 -268.402)" fill="#3a9848"/>
    <path id="Path_8" data-name="Path 8" d="M795.526,252.327a14.143,14.143,0,0,0,.653,3.82c.285-.676.816-.995,2.406-1.472,1.55-.477,3.06-1.074,3.06-2.865a3.11,3.11,0,0,0-3.223-3.143C796.342,248.666,795.526,250.3,795.526,252.327Z" transform="translate(-663.312 -248.498)" fill="#3a9848"/>
    <path id="Path_9" data-name="Path 9" d="M657.344,275.717s-5.4,1.19-5.4,4.759V294.11h5.4Z" transform="translate(-557.666 -268.402)" fill="#3a9848"/>
    <path id="Path_10" data-name="Path 10" d="M649.718,252.327a14.153,14.153,0,0,0,.653,3.82c.285-.676.816-.995,2.407-1.472,1.55-.477,3.06-1.074,3.06-2.865a3.11,3.11,0,0,0-3.223-3.143C650.534,248.666,649.718,250.3,649.718,252.327Z" transform="translate(-556.03 -248.498)" fill="#3a9848"/>
  </g>
  <text id="WAREHOUSE" transform="translate(5.333 125)" fill="#1f5023" stroke="rgba(0,0,0,0)" stroke-width="1" font-size="18" font-family="Montserrat-Bold, Montserrat" font-weight="700"><tspan x="0" y="0">WAREHOUSE</tspan></text>
</svg>
