<svg xmlns="http://www.w3.org/2000/svg" width="51.741" height="51.69" viewBox="0 0 51.741 51.69">
  <path id="Union_1" data-name="Union 1" d="M38.849,51.69H19.507l1.965-7.237H38.481A6.016,6.016,0,0,0,44.5,38.437V32.343l7.244,1.969V38.8A12.892,12.892,0,0,1,38.849,51.69ZM44.5,13.253a6.016,6.016,0,0,0-6.016-6.016H32.523L34.488,0h4.361A12.892,12.892,0,0,1,51.741,12.892V32.009L44.5,30.04ZM13.26,7.237a6.017,6.017,0,0,0-6.017,6.016V18.97L0,17V12.892A12.892,12.892,0,0,1,12.892,0H32.186L30.221,7.237Zm2.845,23.014c-3.427-1.882-7.5-6.495-5.449-15.1,0,0,13.3,2.164,11.16,15.217.008.086,1.007,2.77,1.874,6.024l.835-3.1c-.134-10.11,4.133-18.477,16.782-19.325,0,0,2.381,13.316-7.883,19.635A13.007,13.007,0,0,1,26.7,34.736c2.017-7,5.265-10.96,8.293-13.4-3.313,2.089-7.545,5.992-10.052,14.434-.239.732-1.316,5.718-1.714,7.575h-1.41L23.35,37.65c-.618-1.98-1.868-5.95-2.118-6.5a29.051,29.051,0,0,0-7.339-10.276c1.526,2.141,4.871,6.129,6.343,10.743A14.955,14.955,0,0,1,16.106,30.251ZM7.244,38.437a6.017,6.017,0,0,0,6.017,6.016h5.91L17.205,51.69H12.892A12.892,12.892,0,0,1,0,38.8V19.3l7.244,1.969Z" fill="#3a9848" fill-rule="evenodd"/>
</svg>
