<svg xmlns="http://www.w3.org/2000/svg" width="358" height="337.862" viewBox="0 0 358 337.862">
  <g id="Group_413" data-name="Group 413" transform="translate(-52.45 -72.118)">
    <g id="freepik--background-simple--inject-9" transform="translate(52.45 72.118)">
      <path id="Path_740" data-name="Path 740" d="M53.766,179.146c10.526,82.921,51.969,141.98,173.532,164.7,67.606,12.621,190.9-27.685,182.769-101.271-9.031-81.7-94.155-47.44-164.384-73.818-42-15.754-64.4-101.495-132.537-96.42C59.288,76.309,48.127,134.75,53.766,179.146Z" transform="translate(-52.45 -72.118)" fill="#daf6df" opacity="0.4" style="isolation: isolate"/>
    </g>
    <g id="freepik--mail-sent--inject-9" transform="translate(93.112 77.562)">
      <path id="Path_742" data-name="Path 742" d="M235.256,82.192l-8.852,6.74.43,12.871-8.1-6.436L214.257,99.2l-17.007-21Z" transform="translate(-108.303 -78.2)" fill="#3a9848"/>
      <path id="Path_743" data-name="Path 743" d="M225.591,93.25c0,.394,3.759,10.132,3.759,10.132l-8.1-6.436Z" transform="translate(-110.82 -79.779)" fill="#3a9848"/>
      <g id="Group_397" data-name="Group 397" transform="translate(110.43 13.471)" opacity="0.3">
        <path id="Path_744" data-name="Path 744" d="M225.591,93.25c0,.394,3.759,10.132,3.759,10.132l-8.1-6.436Z" transform="translate(-221.25 -93.25)"/>
      </g>
      <path id="Path_745" data-name="Path 745" d="M197.25,78.2l25.823,13.471,3.759,10.132-.43-12.871Z" transform="translate(-108.303 -78.2)" fill="#3a9848"/>
      <path id="Path_746" data-name="Path 746" d="M197.25,78.2l25.823,13.471,3.759,10.132-.43-12.871Z" transform="translate(-108.303 -78.2)" opacity="0.1" style="isolation: isolate"/>
      <path id="Path_747" data-name="Path 747" d="M276.712,272.089a11.554,11.554,0,0,1-4.592-1.119A11.554,11.554,0,0,1,276.712,272.089Z" transform="translate(-116.157 -98.423)" fill="#263238"/>
      <path id="Path_748" data-name="Path 748" d="M285.109,274.132c0,.134-.671.09-1.423-.09s-1.343-.448-1.316-.582.671-.09,1.432.1S285.145,274,285.109,274.132Z" transform="translate(-117.232 -98.676)" fill="#263238"/>
      <path id="Path_749" data-name="Path 749" d="M251.132,102.559a6.976,6.976,0,0,1-2.336-.367,6.543,6.543,0,0,1-2.256-.707,5.266,5.266,0,0,1,2.372.233A4.991,4.991,0,0,1,251.132,102.559Z" transform="translate(-113.473 -80.638)" fill="#263238"/>
      <path id="Path_750" data-name="Path 750" d="M260.856,106.592a16.035,16.035,0,0,1-4.216-2.112,5.1,5.1,0,0,1,2.247.77C260.059,105.841,260.927,106.476,260.856,106.592Z" transform="translate(-114.533 -80.957)" fill="#263238"/>
      <path id="Path_751" data-name="Path 751" d="M269.32,112.838c-.1.1-.9-.573-1.9-1.414s-1.79-1.557-1.674-1.674a5.191,5.191,0,0,1,2.014,1.3C268.738,111.907,269.419,112.749,269.32,112.838Z" transform="translate(-115.487 -81.51)" fill="#263238"/>
      <path id="Path_752" data-name="Path 752" d="M275.836,121.088c-.125.063-.716-.806-1.432-1.88a7.023,7.023,0,0,1-1.164-2.059c.1-.081.85.689,1.575,1.79A5.091,5.091,0,0,1,275.836,121.088Z" transform="translate(-116.274 -82.285)" fill="#263238"/>
      <path id="Path_753" data-name="Path 753" d="M279.62,130.887a7.162,7.162,0,0,1-.788-2.229,6.78,6.78,0,0,1-.492-2.318,5.227,5.227,0,0,1,.958,2.184A4.888,4.888,0,0,1,279.62,130.887Z" transform="translate(-116.809 -83.25)" fill="#263238"/>
      <path id="Path_754" data-name="Path 754" d="M280.292,141.367a7.376,7.376,0,0,1-.1-2.363,6.758,6.758,0,0,1,.215-2.354,5.225,5.225,0,0,1,.277,2.363A5.114,5.114,0,0,1,280.292,141.367Z" transform="translate(-116.998 -84.332)" fill="#263238"/>
      <path id="Path_755" data-name="Path 755" d="M277.58,151.54a7.286,7.286,0,0,1,.662-2.265,7.526,7.526,0,0,1,.9-2.175,4.738,4.738,0,0,1-.474,2.336A4.864,4.864,0,0,1,277.58,151.54Z" transform="translate(-116.73 -85.428)" fill="#263238"/>
      <path id="Path_756" data-name="Path 756" d="M271.469,160.183c-.09-.107.609-.9,1.459-1.862s1.531-1.79,1.647-1.692a4.9,4.9,0,0,1-1.28,2.014C272.427,159.646,271.559,160.281,271.469,160.183Z" transform="translate(-116.088 -86.427)" fill="#263238"/>
      <path id="Path_757" data-name="Path 757" d="M262.65,166.024a7.4,7.4,0,0,1,2.023-1.217,7.222,7.222,0,0,1,2.157-.967,4.952,4.952,0,0,1-1.933,1.405A4.878,4.878,0,0,1,262.65,166.024Z" transform="translate(-115.164 -87.184)" fill="#263238"/>
      <path id="Path_758" data-name="Path 758" d="M252.39,168.417a7.158,7.158,0,0,1,2.336-.439,7.36,7.36,0,0,1,2.363-.152,4.9,4.9,0,0,1-2.3.636A4.788,4.788,0,0,1,252.39,168.417Z" transform="translate(-114.087 -87.599)" fill="#263238"/>
      <path id="Path_759" data-name="Path 759" d="M242.09,166.54a25.536,25.536,0,0,1,4.475,1.369,4.641,4.641,0,0,1-2.363-.322A4.555,4.555,0,0,1,242.09,166.54Z" transform="translate(-113.007 -87.467)" fill="#263238"/>
      <path id="Path_760" data-name="Path 760" d="M234.79,159.3c.134-.045.546.9,1.28,1.951s1.441,1.79,1.343,1.924-.976-.537-1.745-1.638A3.583,3.583,0,0,1,234.79,159.3Z" transform="translate(-112.241 -86.708)" fill="#263238"/>
      <path id="Path_761" data-name="Path 761" d="M238.8,151.11c0,.143-.976.456-2,1.182s-1.566,1.629-1.692,1.557.269-1.146,1.405-1.951A3.278,3.278,0,0,1,238.8,151.11Z" transform="translate(-112.272 -85.848)" fill="#263238"/>
      <path id="Path_762" data-name="Path 762" d="M247.869,154.5c-.125.072-.7-.806-1.629-1.665s-1.88-1.289-1.79-1.423a3.266,3.266,0,0,1,2.166,1.065A3.473,3.473,0,0,1,247.869,154.5Z" transform="translate(-113.254 -85.88)" fill="#263238"/>
      <path id="Path_763" data-name="Path 763" d="M248.61,164.53a11.3,11.3,0,0,1,.439-2.3,11.521,11.521,0,0,1,.439-2.309,4.088,4.088,0,0,1,0,2.4A4,4,0,0,1,248.61,164.53Z" transform="translate(-113.691 -86.773)" fill="#263238"/>
      <path id="Path_764" data-name="Path 764" d="M241.759,172.558c-.081-.116.734-.788,1.71-1.62a9.716,9.716,0,0,1,1.853-1.459,4.664,4.664,0,0,1-1.531,1.79A5.639,5.639,0,0,1,241.759,172.558Z" transform="translate(-112.971 -87.775)" fill="#263238"/>
      <path id="Path_765" data-name="Path 765" d="M232.41,177.549a5.938,5.938,0,0,1,2.041-1.208,5.8,5.8,0,0,1,2.247-.761,11.42,11.42,0,0,1-4.288,1.969Z" transform="translate(-111.991 -88.416)" fill="#263238"/>
      <path id="Path_766" data-name="Path 766" d="M223,182.287c-.072-.116.779-.752,1.907-1.432a5.366,5.366,0,0,1,2.2-.9c.072.134-.841.68-1.96,1.325A5.787,5.787,0,0,1,223,182.287Z" transform="translate(-111.003 -88.875)" fill="#263238"/>
      <path id="Path_767" data-name="Path 767" d="M215,189.052c-.1-.09.519-.967,1.459-1.889a5.253,5.253,0,0,1,1.907-1.423c.09.107-.636.9-1.557,1.79S215.142,189.141,215,189.052Z" transform="translate(-110.164 -89.482)" fill="#263238"/>
      <path id="Path_768" data-name="Path 768" d="M209,197.588a5.214,5.214,0,0,1,.967-2.175c.689-1.119,1.4-1.924,1.5-1.844a6.636,6.636,0,0,1-1.083,2.1C209.707,196.774,209.125,197.651,209,197.588Z" transform="translate(-109.535 -90.302)" fill="#263238"/>
      <path id="Path_769" data-name="Path 769" d="M205.159,207.334a5.027,5.027,0,0,1,.43-2.336,5.086,5.086,0,0,1,1.029-2.148,15.941,15.941,0,0,1-1.459,4.475Z" transform="translate(-109.132 -91.277)" fill="#263238"/>
      <path id="Path_770" data-name="Path 770" d="M203.759,217.748a8.772,8.772,0,0,1,.322-4.708,6.892,6.892,0,0,1,0,2.363A6.762,6.762,0,0,1,203.759,217.748Z" transform="translate(-108.966 -92.346)" fill="#263238"/>
      <path id="Path_771" data-name="Path 771" d="M205.042,228.188a5.743,5.743,0,0,1-.743-2.256,4.81,4.81,0,0,1-.2-2.372,7.462,7.462,0,0,1,.68,2.274A5.781,5.781,0,0,1,205.042,228.188Z" transform="translate(-109.014 -93.449)" fill="#263238"/>
      <path id="Path_772" data-name="Path 772" d="M208.985,237.935c-.116.072-.752-.788-1.334-1.969a5,5,0,0,1-.761-2.256,6.818,6.818,0,0,1,1.2,2.041A6.738,6.738,0,0,1,208.985,237.935Z" transform="translate(-109.314 -94.514)" fill="#263238"/>
      <path id="Path_773" data-name="Path 773" d="M215.189,246.437c-.09.09-.9-.591-1.79-1.593a5.306,5.306,0,0,1-1.289-2.005c.116-.09.823.7,1.665,1.683S215.288,246.339,215.189,246.437Z" transform="translate(-109.862 -95.471)" fill="#263238"/>
      <path id="Path_774" data-name="Path 774" d="M223.223,253.234a5.12,5.12,0,0,1-2.095-1.137c-1.056-.77-1.79-1.54-1.719-1.647a6.843,6.843,0,0,1,2.014,1.253C222.462,252.464,223.294,253.117,223.223,253.234Z" transform="translate(-110.627 -96.27)" fill="#263238"/>
      <path id="Path_775" data-name="Path 775" d="M232.657,257.893a5.005,5.005,0,0,1-2.309-.582,4.876,4.876,0,0,1-2.068-1.182,7.152,7.152,0,0,1,2.247.725A7.483,7.483,0,0,1,232.657,257.893Z" transform="translate(-111.558 -96.866)" fill="#263238"/>
      <path id="Path_776" data-name="Path 776" d="M238.441,259.419c0,.125-.081.233-.125.224s-.063-.125,0-.26.081-.233.125-.224S238.467,259.285,238.441,259.419Z" transform="translate(-112.606 -97.184)" fill="#263238"/>
      <rect id="Rectangle_298" data-name="Rectangle 298" width="6.409" height="10.303" transform="translate(107.203 141.67) rotate(-71.82)" fill="#3a9848"/>
      <g id="Group_398" data-name="Group 398" transform="translate(107.203 135.581)" opacity="0.3">
        <rect id="Rectangle_299" data-name="Rectangle 299" width="6.409" height="10.303" transform="translate(0 6.089) rotate(-71.82)"/>
      </g>
      <path id="Path_777" data-name="Path 777" d="M229.643,232.9a40.684,40.684,0,0,1-5.675,2.327l-.17.063-.107-.143-.17-.215a40.253,40.253,0,0,1-3.661-5.254,42.137,42.137,0,0,1,4.055,4.959l.161.215-.277-.081A38.133,38.133,0,0,1,229.643,232.9Z" transform="translate(-110.675 -94.091)" fill="#3a9848"/>
      <g id="Group_399" data-name="Group 399" transform="translate(109.185 135.589)" opacity="0.1">
        <path id="Path_778" data-name="Path 778" d="M229.643,232.9a40.684,40.684,0,0,1-5.675,2.327l-.17.063-.107-.143-.17-.215a40.253,40.253,0,0,1-3.661-5.254,42.137,42.137,0,0,1,4.055,4.959l.161.215-.277-.081A38.133,38.133,0,0,1,229.643,232.9Z" transform="translate(-219.86 -229.68)"/>
      </g>
      <path id="Path_779" data-name="Path 779" d="M222.435,233.85a7.37,7.37,0,0,1-2.3,1.405,7.882,7.882,0,0,1-2.524.958,7.6,7.6,0,0,1,2.309-1.405A7.934,7.934,0,0,1,222.435,233.85Z" transform="translate(-110.439 -94.529)" fill="#3a9848"/>
      <g id="Group_400" data-name="Group 400" transform="translate(107.171 139.321)" opacity="0.1">
        <path id="Path_780" data-name="Path 780" d="M222.435,233.85a7.37,7.37,0,0,1-2.3,1.405,7.882,7.882,0,0,1-2.524.958,7.6,7.6,0,0,1,2.309-1.405A7.934,7.934,0,0,1,222.435,233.85Z" transform="translate(-217.61 -233.85)"/>
      </g>
      <path id="Path_781" data-name="Path 781" d="M228.5,239.586a7.381,7.381,0,0,1-1.253-2.265c-.591-1.334-.985-2.479-.806-2.462a7.473,7.473,0,0,1,1.262,2.265A6.956,6.956,0,0,1,228.5,239.586Z" transform="translate(-111.361 -94.635)" fill="#3a9848"/>
      <g id="Group_401" data-name="Group 401" transform="translate(115.041 140.225)" opacity="0.1">
        <path id="Path_782" data-name="Path 782" d="M228.5,239.586a7.381,7.381,0,0,1-1.253-2.265c-.591-1.334-.985-2.479-.806-2.462a7.473,7.473,0,0,1,1.262,2.265A6.956,6.956,0,0,1,228.5,239.586Z" transform="translate(-226.401 -234.86)"/>
      </g>
      <rect id="Rectangle_300" data-name="Rectangle 300" width="16.488" height="26.495" transform="translate(128.588 170.046) rotate(-71.82)" fill="#3a9848"/>
      <path id="Path_783" data-name="Path 783" d="M272.425,258.961a6.448,6.448,0,0,1-1.128.51l-3.133,1.226c-2.685,1.011-6.346,2.39-10.473,3.9l-.17.063-.107-.143-.421-.555c-2.739-3.58-5.209-6.919-6.973-9.327l-2.1-2.855a7.158,7.158,0,0,1-.707-1.092,7.058,7.058,0,0,1,.9.976l2.193,2.766c1.835,2.345,4.341,5.612,7.089,9.237l.421.546-.277-.081c4.117-1.5,7.832-2.828,10.517-3.759l3.187-1.083A6.621,6.621,0,0,1,272.425,258.961Z" transform="translate(-113.544 -96.295)" fill="#3a9848"/>
      <g id="Group_402" data-name="Group 402" transform="translate(133.666 154.395)" opacity="0.2">
        <path id="Path_784" data-name="Path 784" d="M272.425,258.961a6.448,6.448,0,0,1-1.128.51l-3.133,1.226c-2.685,1.011-6.346,2.39-10.473,3.9l-.17.063-.107-.143-.421-.555c-2.739-3.58-5.209-6.919-6.973-9.327l-2.1-2.855a7.158,7.158,0,0,1-.707-1.092,7.058,7.058,0,0,1,.9.976l2.193,2.766c1.835,2.345,4.341,5.612,7.089,9.237l.421.546-.277-.081c4.117-1.5,7.832-2.828,10.517-3.759l3.187-1.083A6.621,6.621,0,0,1,272.425,258.961Z" transform="translate(-247.21 -250.69)"/>
      </g>
      <path id="Path_785" data-name="Path 785" d="M253.925,261.42a49.95,49.95,0,0,1-6.1,3.249,50.317,50.317,0,0,1-6.31,2.811,47.182,47.182,0,0,1,6.1-3.258A47.092,47.092,0,0,1,253.925,261.42Z" transform="translate(-112.946 -97.421)" fill="#3a9848"/>
      <g id="Group_403" data-name="Group 403" transform="translate(128.564 163.999)" opacity="0.2">
        <path id="Path_786" data-name="Path 786" d="M253.925,261.42a49.95,49.95,0,0,1-6.1,3.249,50.317,50.317,0,0,1-6.31,2.811,47.182,47.182,0,0,1,6.1-3.258A47.092,47.092,0,0,1,253.925,261.42Z" transform="translate(-241.51 -261.42)"/>
      </g>
      <path id="Path_787" data-name="Path 787" d="M269.52,276.164a45.634,45.634,0,0,1-2.873-5.979A45.2,45.2,0,0,1,264.23,264a45.405,45.405,0,0,1,2.873,5.988A44.774,44.774,0,0,1,269.52,276.164Z" transform="translate(-115.329 -97.692)" fill="#3a9848"/>
      <g id="Group_404" data-name="Group 404" transform="translate(148.901 166.308)" opacity="0.2">
        <path id="Path_788" data-name="Path 788" d="M269.52,276.164a45.634,45.634,0,0,1-2.873-5.979A45.2,45.2,0,0,1,264.23,264a45.405,45.405,0,0,1,2.873,5.988A44.774,44.774,0,0,1,269.52,276.164Z" transform="translate(-264.23 -264)"/>
      </g>
      <path id="Path_789" data-name="Path 789" d="M248.067,254.168a3.93,3.93,0,1,1,.841-5.5,3.929,3.929,0,0,1-.841,5.5Z" transform="translate(-112.978 -95.916)" fill="#263238"/>
      <path id="Path_790" data-name="Path 790" d="M248.47,250.628a17.9,17.9,0,0,1-2.641,1.629l-.627.349-.116.063-.063-.107a12.718,12.718,0,0,1-1.074-2.121,11.849,11.849,0,0,1,1.3,2l-.17-.054.627-.358A17.794,17.794,0,0,1,248.47,250.628Z" transform="translate(-113.202 -96.269)" fill="#fff"/>
      <rect id="Rectangle_301" data-name="Rectangle 301" width="8.638" height="13.883" transform="translate(126.85 145.416) rotate(-71.82)" fill="#3a9848"/>
      <g id="Group_405" data-name="Group 405" transform="translate(126.85 137.21)" opacity="0.2">
        <rect id="Rectangle_302" data-name="Rectangle 302" width="8.638" height="13.883" transform="translate(0 8.206) rotate(-71.82)"/>
      </g>
      <path id="Path_791" data-name="Path 791" d="M255.766,235.832a2.956,2.956,0,0,1-.582.269l-1.647.644c-1.387.528-3.321,1.253-5.487,2.041h-.09l-.054-.081-.215-.286c-1.441-1.9-2.685-3.625-3.661-4.887l-1.074-1.459a3.914,3.914,0,0,1-.367-.573,3.418,3.418,0,0,1,.448.51l1.155,1.45c.958,1.226,2.274,2.936,3.706,4.833l.224.3h-.143c2.157-.788,4.1-1.486,5.514-1.969l1.665-.564A2.856,2.856,0,0,1,255.766,235.832Z" transform="translate(-113.059 -94.282)" fill="#3a9848"/>
      <g id="Group_406" data-name="Group 406" transform="translate(129.531 137.218)" opacity="0.2">
        <path id="Path_792" data-name="Path 792" d="M255.766,235.832a2.956,2.956,0,0,1-.582.269l-1.647.644c-1.387.528-3.321,1.253-5.487,2.041h-.09l-.054-.081-.215-.286c-1.441-1.9-2.685-3.625-3.661-4.887l-1.074-1.459a3.914,3.914,0,0,1-.367-.573,3.418,3.418,0,0,1,.448.51l1.155,1.45c.958,1.226,2.274,2.936,3.706,4.833l.224.3h-.143c2.157-.788,4.1-1.486,5.514-1.969l1.665-.564A2.856,2.856,0,0,1,255.766,235.832Z" transform="translate(-242.59 -231.5)" fill="#3a9848"/>
      </g>
      <path id="Path_793" data-name="Path 793" d="M246.077,237.12a26.963,26.963,0,0,1-3.2,1.7,26.647,26.647,0,0,1-3.312,1.477,24.714,24.714,0,0,1,3.2-1.71A25.128,25.128,0,0,1,246.077,237.12Z" transform="translate(-112.742 -94.872)" fill="#3a9848"/>
      <g id="Group_407" data-name="Group 407" transform="translate(126.828 142.248)" opacity="0.2">
        <path id="Path_794" data-name="Path 794" d="M246.077,237.12a26.963,26.963,0,0,1-3.2,1.7,26.647,26.647,0,0,1-3.312,1.477,24.714,24.714,0,0,1,3.2-1.71A25.128,25.128,0,0,1,246.077,237.12Z" transform="translate(-239.57 -237.12)" fill="#3a9848"/>
      </g>
      <path id="Path_795" data-name="Path 795" d="M254.245,244.843a23.636,23.636,0,0,1-1.5-3.133,25.34,25.34,0,0,1-1.271-3.24,45.622,45.622,0,0,1,2.775,6.373Z" transform="translate(-113.991 -95.013)" fill="#3a9848"/>
      <g id="Group_408" data-name="Group 408" transform="translate(137.479 143.457)" opacity="0.2">
        <path id="Path_796" data-name="Path 796" d="M254.245,244.843a23.636,23.636,0,0,1-1.5-3.133,25.34,25.34,0,0,1-1.271-3.24,45.622,45.622,0,0,1,2.775,6.373Z" transform="translate(-251.47 -238.47)" fill="#3a9848"/>
      </g>
      <path id="Path_797" data-name="Path 797" d="M134.686,118.84A18.69,18.69,0,1,1,121.17,96.122,18.689,18.689,0,0,1,134.686,118.84Z" transform="translate(-97.878 -80.019)" fill="#263238"/>
      <path id="Path_798" data-name="Path 798" d="M124.457,105.11c.331.134-1.79,6.391-4.744,13.981-.439,1.1-.9,2.157-1.262,3.2l-.224.564-.564-.215c-6.06-2.336-10.491-4.261-10.383-4.538s4.708,1.173,10.813,3.383l-.788.358c.394-1.038.806-2.1,1.226-3.2C121.476,111.035,124.134,105.011,124.457,105.11Z" transform="translate(-98.864 -81.023)" fill="#fff"/>
    </g>
    <g id="freepik--Plant--inject-9" transform="translate(323.635 336.799)">
      <path id="Path_799" data-name="Path 799" d="M395.188,416.9a17.3,17.3,0,0,1,10.741-1.307,8.937,8.937,0,0,1,5.317,2.363c1.334,1.468,1.575,4.046.054,5.308a5.161,5.161,0,0,1-3.348.85c-2.846,0-6-.537-8.271,1.173-1.3.976-2.157,2.6-3.706,3.079a3.679,3.679,0,0,1-4.028-1.79,6.266,6.266,0,0,1-.456-4.619A7.037,7.037,0,0,1,395.188,416.9Z" transform="translate(-359.176 -372.796)" fill="#3a9848"/>
      <g id="Group_409" data-name="Group 409" transform="translate(32.069 42.46)" opacity="0.2">
        <path id="Path_800" data-name="Path 800" d="M395.188,416.9a17.3,17.3,0,0,1,10.741-1.307,8.937,8.937,0,0,1,5.317,2.363c1.334,1.468,1.575,4.046.054,5.308a5.161,5.161,0,0,1-3.348.85c-2.846,0-6-.537-8.271,1.173-1.3.976-2.157,2.6-3.706,3.079a3.679,3.679,0,0,1-4.028-1.79,6.266,6.266,0,0,1-.456-4.619A7.037,7.037,0,0,1,395.188,416.9Z" transform="translate(-391.246 -415.256)" fill="#fff"/>
      </g>
      <path id="Path_801" data-name="Path 801" d="M387.059,397.457c2.005,2.855,5.89,1.907,7.689.161s2.569-4.27,3.258-6.677c1.584-5.5,3.178-11.278,2.005-16.882a9.493,9.493,0,0,0-2.157-4.592,4.9,4.9,0,0,0-4.646-1.549c-1.96.519-3.178,2.444-4.055,4.27a40.344,40.344,0,0,0-3.983,17.275c0,2.784.322,5.7,1.889,8" transform="translate(-358.539 -367.82)" fill="#3a9848"/>
      <path id="Path_802" data-name="Path 802" d="M378.451,402.636a10.413,10.413,0,0,0,1.611-9.569,18.484,18.484,0,0,0-5.657-8.217,30.592,30.592,0,0,0-10.141-5.943,10.85,10.85,0,0,0-4.565-.779,4.808,4.808,0,0,0-3.831,2.318c-1.065,2.032-.045,4.475,1.065,6.516a77.753,77.753,0,0,0,6.659,10.15c2,2.569,4.288,5.111,7.331,6.266s6.2,1.029,7.814-1.083" transform="translate(-355.418 -368.9)" fill="#3a9848"/>
      <g id="Group_410" data-name="Group 410" transform="translate(0 9.217)" opacity="0.1">
        <path id="Path_803" data-name="Path 803" d="M378.451,402.636a10.413,10.413,0,0,0,1.611-9.569,18.484,18.484,0,0,0-5.657-8.217,30.592,30.592,0,0,0-10.141-5.943,10.85,10.85,0,0,0-4.565-.779,4.808,4.808,0,0,0-3.831,2.318c-1.065,2.032-.045,4.475,1.065,6.516a77.753,77.753,0,0,0,6.659,10.15c2,2.569,4.288,5.111,7.331,6.266s6.2,1.029,7.814-1.083" transform="translate(-355.418 -378.117)"/>
      </g>
      <path id="Path_804" data-name="Path 804" d="M387.124,445.977a6.409,6.409,0,0,0,.179-1.3c.1-.949.206-2.13.349-3.58a50.6,50.6,0,0,1,.8-5.192,39.636,39.636,0,0,1,1.889-6.131,22.585,22.585,0,0,1,3.133-5.55,11.631,11.631,0,0,1,3.956-3.294,11.266,11.266,0,0,1,3.33-1.038,6.325,6.325,0,0,0,1.289-.179,5.408,5.408,0,0,0-1.307,0,10.209,10.209,0,0,0-3.482.9,11.756,11.756,0,0,0-4.171,3.321,22.179,22.179,0,0,0-3.249,5.657,37.745,37.745,0,0,0-1.871,6.266,43.241,43.241,0,0,0-.689,5.254c-.116,1.5-.161,2.685-.179,3.58A6.332,6.332,0,0,0,387.124,445.977Z" transform="translate(-358.739 -373.26)" fill="#263238"/>
      <path id="Path_805" data-name="Path 805" d="M387.369,439.14a2.245,2.245,0,0,0,0-.6v-1.719c0-1.495,0-3.661.072-6.328.134-5.371.591-12.719,1.486-20.82s2.077-15.4,3.16-20.587c.251-1.307.51-2.488.752-3.518s.43-1.933.618-2.685.3-1.235.4-1.674a2.44,2.44,0,0,0,.107-.6,2.535,2.535,0,0,0-.206.564l-.5,1.656c-.224.716-.448,1.6-.707,2.632s-.555,2.2-.841,3.518a196.411,196.411,0,0,0-3.285,20.623c-.9,8.119-1.289,15.512-1.325,20.865,0,2.685,0,4.842.09,6.337q.063,1.047.107,1.719A3.189,3.189,0,0,0,387.369,439.14Z" transform="translate(-358.742 -369.161)" fill="#263238"/>
      <path id="Path_806" data-name="Path 806" d="M385.2,425.4a11.068,11.068,0,0,0,0-1.79,47.032,47.032,0,0,0-.555-4.869,67.535,67.535,0,0,0-4.547-15.5,44.7,44.7,0,0,0-8.718-13.588,21.4,21.4,0,0,0-2.05-1.907c-.313-.269-.591-.528-.9-.743l-.788-.546a11.94,11.94,0,0,0-1.522-.976,54.609,54.609,0,0,1,4.968,4.431,47.2,47.2,0,0,1,8.5,13.534,67.254,67.254,0,0,1,2.981,8.324c.779,2.6,1.3,5,1.692,7.027s.582,3.679.716,4.825A12.547,12.547,0,0,0,385.2,425.4Z" transform="translate(-356.542 -369.672)" fill="#263238"/>
    </g>
    <g id="freepik--Device--inject-9" transform="translate(216.163 233.067)">
      <path id="Path_807" data-name="Path 807" d="M235.35,293.391h37.478l14.841-41.461h-2.077l-14.715,39.438-35.526.206Z" transform="translate(-235.35 -251.93)" fill="#455a64"/>
    </g>
    <g id="freepik--Desk--inject-9" transform="translate(164.283 274.527)">
      <path id="Path_808" data-name="Path 808" d="M216.85,303.988l1.387,129.869h3.813L220.5,303.03Z" transform="translate(-181.53 -298.751)" fill="#263238"/>
      <path id="Path_809" data-name="Path 809" d="M306.465,302.69c-.51,2.479,3.437,131.427,3.437,131.427h3.58L310.573,302.69Z" transform="translate(-190.926 -298.716)" fill="#263238"/>
      <path id="Path_810" data-name="Path 810" d="M336.744,298.25H177.39v6.57h13.149l-8.557,128.115,3.741.206,8.566-128.321H323.335l6.257,128.374h3.75L327.086,304.82h9.658Z" transform="translate(-177.39 -298.25)" fill="#263238"/>
    </g>
    <g id="freepik--Character--inject-9" transform="translate(89.272 150.177)">
      <path id="Path_811" data-name="Path 811" d="M252.814,442.554v-9.846l-18.448-.188-.206,14.411,1.146.081c5.084.34,25.886,1.343,29.3.349C268.4,446.251,252.814,442.554,252.814,442.554Z" transform="translate(-108.335 -187.986)" fill="#3a9848"/>
      <path id="Path_812" data-name="Path 812" d="M240.839,447.9a6.381,6.381,0,0,0-2.309-3.956,6.266,6.266,0,0,0-4.3-1.387l-.054,5.156Z" transform="translate(-108.337 -189.038)" fill="#f5f5f5"/>
      <path id="Path_813" data-name="Path 813" d="M260.4,446.05s5.478,1.647,4.78,2.542-21.751.671-31.033-.242v-.412l24.561.474S259.329,446.086,260.4,446.05Z" transform="translate(-108.334 -189.405)" fill="#f5f5f5"/>
      <path id="Path_814" data-name="Path 814" d="M233.87,448.14h.313l.9.072,3.348.179c2.828.134,6.74.26,11.063.313s8.244,0,11.072-.063l3.357-.1.9-.045h.313a1.221,1.221,0,0,0-.313,0H249.5c-4.314,0-8.235-.161-11.063-.251l-3.357-.107H233.87Z" transform="translate(-108.304 -189.624)" fill="#263238"/>
      <path id="Path_815" data-name="Path 815" d="M261.62,448.664a7.365,7.365,0,0,1,.644-1.593,7.207,7.207,0,0,1,1.155-1.271,2.972,2.972,0,0,0-1.79,2.864Z" transform="translate(-111.215 -189.379)" fill="#263238"/>
      <path id="Path_816" data-name="Path 816" d="M255.57,445.68a2.346,2.346,0,0,0,.591-.707c.268-.421.456-.788.4-.823s-.313.286-.591.707A2.12,2.12,0,0,0,255.57,445.68Z" transform="translate(-110.581 -189.206)" fill="#263238"/>
      <path id="Path_817" data-name="Path 817" d="M253.91,444.88c.045.045.34-.143.662-.43s.546-.546.5-.591-.331.143-.653.421S253.874,444.8,253.91,444.88Z" transform="translate(-110.406 -189.175)" fill="#263238"/>
      <path id="Path_818" data-name="Path 818" d="M252.88,442.987a2.108,2.108,0,0,0,.958.134,2.212,2.212,0,0,0,.967-.09,2.106,2.106,0,0,0-.958-.134A2.238,2.238,0,0,0,252.88,442.987Z" transform="translate(-110.299 -189.073)" fill="#263238"/>
      <path id="Path_819" data-name="Path 819" d="M252.53,441.63a2.737,2.737,0,0,0,2.184.188Q253.621,441.733,252.53,441.63Z" transform="translate(-110.262 -188.941)" fill="#263238"/>
      <path id="Path_820" data-name="Path 820" d="M256.29,443.88a3.5,3.5,0,0,0,1.19,0,6.6,6.6,0,0,0,1.262-.26,3.474,3.474,0,0,0,.725-.3.6.6,0,0,0,.3-.358.484.484,0,0,0-.17-.483,2.183,2.183,0,0,0-2.685.609,2.1,2.1,0,0,0-.4.788v.322a3.09,3.09,0,0,1,.546-1,2.1,2.1,0,0,1,1.02-.653,1.854,1.854,0,0,1,1.414.116c.188.143.107.358-.1.483a3.635,3.635,0,0,1-.671.277,8.127,8.127,0,0,1-1.226.3A5.77,5.77,0,0,0,256.29,443.88Z" transform="translate(-110.656 -189.007)" fill="#263238"/>
      <path id="Path_821" data-name="Path 821" d="M256.452,443.866a1.181,1.181,0,0,0,.152-.824,2.053,2.053,0,0,0-.313-.9,1.2,1.2,0,0,0-.985-.618.465.465,0,0,0-.367.546,1.327,1.327,0,0,0,.188.528,4.279,4.279,0,0,0,.555.725,1.642,1.642,0,0,0,.671.483,7.682,7.682,0,0,1-.555-.591,3.941,3.941,0,0,1-.483-.716c-.161-.251-.269-.707,0-.752s.6.268.779.51a2.065,2.065,0,0,1,.322.77A3.6,3.6,0,0,1,256.452,443.866Z" transform="translate(-110.514 -188.931)" fill="#263238"/>
      <path id="Path_822" data-name="Path 822" d="M234.35,442.5a7.076,7.076,0,0,1,1.361.063,5.609,5.609,0,0,1,4.753,3.938c.269.788.3,1.325.331,1.316s0-.134,0-.367a5.38,5.38,0,0,0-.188-1,5.631,5.631,0,0,0-4.923-4.01,4.521,4.521,0,0,0-1.02,0A.853.853,0,0,0,234.35,442.5Z" transform="translate(-108.355 -189.023)" fill="#263238"/>
      <path id="Path_823" data-name="Path 823" d="M236.554,434a61.617,61.617,0,0,0-.179,7.572,31.471,31.471,0,0,0,.2-3.786A33.825,33.825,0,0,0,236.554,434Z" transform="translate(-108.562 -188.141)" fill="#263238"/>
      <path id="Path_824" data-name="Path 824" d="M244.24,446.548a10.165,10.165,0,0,0,2.685.3,10.015,10.015,0,0,0,2.685-.188c0-.063-1.208,0-2.685,0S244.249,446.486,244.24,446.548Z" transform="translate(-109.392 -189.456)" fill="#263238"/>
      <path id="Path_825" data-name="Path 825" d="M240.2,446.5a4.587,4.587,0,0,0,.215.537c.116.277.188.519.251.519s.1-.3-.045-.609S240.245,446.454,240.2,446.5Z" transform="translate(-108.968 -189.452)" fill="#263238"/>
      <path id="Path_826" data-name="Path 826" d="M238.7,444.589a.923.923,0,0,0,.26.43c.188.2.376.322.421.277s-.072-.233-.26-.43S238.745,444.544,238.7,444.589Z" transform="translate(-108.811 -189.251)" fill="#263238"/>
      <path id="Path_827" data-name="Path 827" d="M236.53,443.689c0,.063.26.063.528.161s.465.251.51.206-.1-.3-.439-.412S236.512,443.635,236.53,443.689Z" transform="translate(-108.583 -189.147)" fill="#263238"/>
      <path id="Path_828" data-name="Path 828" d="M235,443.275c0,.054.081.152.233.215s.3.063.313,0-.081-.152-.233-.215S235,443.212,235,443.275Z" transform="translate(-108.423 -189.109)" fill="#263238"/>
      <path id="Path_829" data-name="Path 829" d="M293.066,431.576l-4.046-9L272.13,430l5.738,13.212,1.074-.394c4.78-1.79,24.168-9.425,26.853-11.735C308.829,428.506,293.066,431.576,293.066,431.576Z" transform="translate(-112.318 -186.943)" fill="#3a9848"/>
      <path id="Path_830" data-name="Path 830" d="M284.387,442.142a6.4,6.4,0,0,0-3.741-2.685,6.268,6.268,0,0,0-4.475.51l2.068,4.717Z" transform="translate(-112.742 -188.692)" fill="#f5f5f5"/>
      <path id="Path_831" data-name="Path 831" d="M301.537,431.2s5.666-.761,5.371.349-19.549,9.56-28.383,12.531l-.134-.385,22.574-9.676S300.57,431.675,301.537,431.2Z" transform="translate(-112.975 -187.821)" fill="#f5f5f5"/>
      <path id="Path_832" data-name="Path 832" d="M278.11,443.849l.3-.1.9-.313,3.133-1.217c2.632-1.047,6.266-2.533,10.213-4.27s7.51-3.375,10.061-4.61l3.016-1.468.815-.421a1.307,1.307,0,0,0,.277-.152l-.3.116-.832.376-3.043,1.414c-2.569,1.182-6.131,2.811-10.088,4.538s-7.572,3.249-10.186,4.332l-3.1,1.28-.841.349Z" transform="translate(-112.945 -187.858)" fill="#263238"/>
      <path id="Path_833" data-name="Path 833" d="M303.73,434.3a7.04,7.04,0,0,1-.072-1.719,8.228,8.228,0,0,1,.528-1.638,2.476,2.476,0,0,0-.752,1.6A2.508,2.508,0,0,0,303.73,434.3Z" transform="translate(-115.597 -187.82)" fill="#263238"/>
      <path id="Path_834" data-name="Path 834" d="M296.994,434.09a2.04,2.04,0,0,0,.251-.9c.081-.51.09-.9,0-.9s-.17.385-.251.9A1.847,1.847,0,0,0,296.994,434.09Z" transform="translate(-114.921 -187.963)" fill="#263238"/>
      <path id="Path_835" data-name="Path 835" d="M295.077,434a1.779,1.779,0,0,0,.421-.662c.179-.385.269-.725.215-.752s-.242.269-.421.662S295.006,433.977,295.077,434Z" transform="translate(-114.723 -187.993)" fill="#263238"/>
      <path id="Path_836" data-name="Path 836" d="M293.33,432.72a2.306,2.306,0,0,0,.9-.277c.492-.206.9-.421.841-.474a1.924,1.924,0,0,0-.9.269C293.715,432.443,293.3,432.658,293.33,432.72Z" transform="translate(-114.542 -187.927)" fill="#263238"/>
      <path id="Path_837" data-name="Path 837" d="M292.45,431.615a1.9,1.9,0,0,0,1.11-.152,1.863,1.863,0,0,0,.949-.573,5.993,5.993,0,0,0-1.029.367A5.674,5.674,0,0,0,292.45,431.615Z" transform="translate(-114.45 -187.815)" fill="#263238"/>
      <path id="Path_838" data-name="Path 838" d="M296.88,432.072a3.57,3.57,0,0,0,1.083-.483,7.135,7.135,0,0,0,1.038-.761,3.655,3.655,0,0,0,.546-.564.653.653,0,0,0,.116-.456.447.447,0,0,0-.349-.358,2.185,2.185,0,0,0-2.274,2.091,2.15,2.15,0,0,0,.027.442.791.791,0,0,0,.1.313,3.576,3.576,0,0,1,.089-1.146,2.108,2.108,0,0,1,.662-1.011,1.872,1.872,0,0,1,1.334-.474c.233.045.251.277.107.483a3.933,3.933,0,0,1-.492.528,9.376,9.376,0,0,1-.994.779C297.274,431.858,296.862,432.037,296.88,432.072Z" transform="translate(-114.914 -187.663)" fill="#263238"/>
      <path id="Path_839" data-name="Path 839" d="M296.963,432.1a1.218,1.218,0,0,0-.206-.806,2.071,2.071,0,0,0-.644-.671,1.2,1.2,0,0,0-1.146-.152.466.466,0,0,0-.116.644,1.2,1.2,0,0,0,.394.4,3.814,3.814,0,0,0,.806.439,1.683,1.683,0,0,0,.814.161,6.7,6.7,0,0,1-.752-.313,3.82,3.82,0,0,1-.743-.448c-.251-.161-.528-.528-.277-.7a1.055,1.055,0,0,1,.9.143,1.928,1.928,0,0,1,.618.573A4.744,4.744,0,0,1,296.963,432.1Z" transform="translate(-114.693 -187.762)" fill="#263238"/>
      <path id="Path_840" data-name="Path 840" d="M276.24,439.884a6.662,6.662,0,0,1,1.262-.5,5.782,5.782,0,0,1,5.97,1.584c.573.618.815,1.092.85,1.065a1.319,1.319,0,0,0-.152-.34,4.69,4.69,0,0,0-.582-.824,5.673,5.673,0,0,0-2.811-1.79,5.768,5.768,0,0,0-3.321.134,4.74,4.74,0,0,0-.9.439A.992.992,0,0,0,276.24,439.884Z" transform="translate(-112.749 -188.655)" fill="#263238"/>
      <path id="Path_841" data-name="Path 841" d="M274.75,431.27a29.883,29.883,0,0,0,1.369,3.58A34.546,34.546,0,0,0,277.7,438.3a32.04,32.04,0,0,0-1.378-3.536A34.322,34.322,0,0,0,274.75,431.27Z" transform="translate(-112.593 -187.855)" fill="#263238"/>
      <path id="Path_842" data-name="Path 842" d="M286.91,439.351a10.707,10.707,0,0,0,2.578-.841,9.9,9.9,0,0,0,2.381-1.28c0-.054-1.1.492-2.47,1.074S286.892,439.288,286.91,439.351Z" transform="translate(-113.868 -188.479)" fill="#263238"/>
      <path id="Path_843" data-name="Path 843" d="M283.21,441.208c0,.063.2.2.421.4s.385.4.439.367,0-.3-.286-.537S283.228,441.154,283.21,441.208Z" transform="translate(-113.48 -188.895)" fill="#263238"/>
      <path id="Path_844" data-name="Path 844" d="M281.06,440.086c0,.063.161.188.412.286s.474.134.5.081-.161-.188-.412-.286S281.078,440.005,281.06,440.086Z" transform="translate(-113.255 -188.776)" fill="#263238"/>
      <path id="Path_845" data-name="Path 845" d="M278.719,440.139c0,.054.26-.045.546-.063a4.855,4.855,0,0,1,.546,0,.656.656,0,0,0-.564-.2C278.9,439.915,278.675,440.094,278.719,440.139Z" transform="translate(-113.009 -188.757)" fill="#263238"/>
      <path id="Path_846" data-name="Path 846" d="M277.13,440.405c0,.063.143.107.3.1s.3-.063.3-.125-.143-.107-.3-.1S277.13,440.343,277.13,440.405Z" transform="translate(-112.843 -188.8)" fill="#263238"/>
      <path id="Path_847" data-name="Path 847" d="M106.945,346.9,93.626,247.373a4.2,4.2,0,0,1,3.6-4.719,4.249,4.249,0,0,1,.873-.025l32.107,2.685a6.069,6.069,0,0,1,5.541,5.559l7.823,94.227Z" transform="translate(-93.588 -168.064)" fill="#3a9848"/>
      <g id="Group_411" data-name="Group 411" transform="translate(0 74.553)" opacity="0.2">
        <path id="Path_848" data-name="Path 848" d="M106.945,346.9,93.626,247.373a4.2,4.2,0,0,1,3.6-4.719,4.249,4.249,0,0,1,.873-.025l32.107,2.685a6.069,6.069,0,0,1,5.541,5.559l7.823,94.227Z" transform="translate(-93.588 -242.617)"/>
      </g>
      <path id="Path_849" data-name="Path 849" d="M142.858,191.893c-.269-3.8-1.262-7.492-1.79-11.251s-.636-7.716.85-11.216a16.353,16.353,0,0,1,9.255-8.468,28.346,28.346,0,0,1,12.692-1.45,6,6,0,0,1,2.247.51,2.228,2.228,0,0,1,1.28,1.79,1.388,1.388,0,0,1-1.323,1.449c-.033,0-.067,0-.1,0a22.568,22.568,0,0,1,4.807,1.029,2.822,2.822,0,0,1,1.557,1.119,2.139,2.139,0,0,1-.215,2.112,6.256,6.256,0,0,1-1.62,1.522,1.487,1.487,0,0,1,1.745,1.171v0a2.829,2.829,0,0,1-.618,2.211c-.456.644-1.047,1.173-1.522,1.79-1.933,2.569-1.557,6.14-1.092,9.327" transform="translate(-98.531 -159.326)" fill="#263238"/>
      <path id="Path_850" data-name="Path 850" d="M143.454,215.124l18.09-.322c.242-2.095.591-10.24.591-10.24s7.564-.7,8.118-8.181.322-24.758.322-24.758h0a26.075,26.075,0,0,0-26.352,1.674l-1.164.788Z" transform="translate(-98.778 -160.323)" fill="#b78876"/>
      <path id="Path_851" data-name="Path 851" d="M170.963,186.232a1.082,1.082,0,1,1,.017.017Z" transform="translate(-101.672 -161.953)" fill="#263238"/>
      <path id="Path_852" data-name="Path 852" d="M172.683,184.282c-.125.125-.823-.483-1.853-.555s-1.79.421-1.924.277.081-.286.421-.519a2.577,2.577,0,0,1,3.016.224C172.647,183.986,172.745,184.228,172.683,184.282Z" transform="translate(-101.485 -161.82)" fill="#263238"/>
      <path id="Path_853" data-name="Path 853" d="M159.589,184.587a1.092,1.092,0,1,1-1.521.27l.008-.011a1.083,1.083,0,0,1,1.509-.262Z" transform="translate(-100.332 -161.955)" fill="#263238"/>
      <path id="Path_854" data-name="Path 854" d="M160.1,184.531c-.125.116-.823-.492-1.853-.564s-1.79.421-1.915.286.072-.3.421-.519a2.533,2.533,0,0,1,3.008.224C160.068,184.226,160.167,184.477,160.1,184.531Z" transform="translate(-100.167 -161.846)" fill="#263238"/>
      <path id="Path_855" data-name="Path 855" d="M164.581,193.4a5,5,0,0,1,1.683-.251c.277,0,.492-.063.519-.206a1.532,1.532,0,0,0-.143-.788c-.224-.7-.456-1.405-.689-2.148-.94-3.052-1.584-5.567-1.423-5.612s1.038,2.39,1.987,5.442c.224.743.43,1.459.644,2.157a1.793,1.793,0,0,1,.072,1.137.706.706,0,0,1-.492.4,2.159,2.159,0,0,1-.456,0A5.062,5.062,0,0,1,164.581,193.4Z" transform="translate(-101.027 -161.956)" fill="#263238"/>
      <path id="Path_856" data-name="Path 856" d="M160.74,195.485c-1.029-.707,2.864,1.79,4.968,1.79a2.838,2.838,0,0,1-3.428.9C160.06,197.231,160.74,195.485,160.74,195.485Z" transform="translate(-100.615 -163.106)" fill="#fff"/>
      <path id="Path_857" data-name="Path 857" d="M163.275,208.234a17.41,17.41,0,0,1-9.6-3.375s1.978,5.532,9.488,5.317Z" transform="translate(-99.892 -164.103)" fill="#a36957"/>
      <path id="Path_858" data-name="Path 858" d="M142.582,179.229l.385,9.712s3.41-1.038,3.634-1.137-.063-11.9-.063-11.9-.474-4.475,2.426-5.5c3.052-1.1,4.377,1.11,8.7,1.79,14.259,2.408,13.283-1.969,13.283-1.969s1.79-1.924-1.871-4.037-12.818-2.829-17.83-1.1c-9.846,3.392-10.437,6.767-10.437,9.748C140.81,179.086,142.582,179.229,142.582,179.229Z" transform="translate(-98.542 -159.829)" fill="#263238"/>
      <path id="Path_859" data-name="Path 859" d="M144.065,182.114c-.161-.063-5.55-.761-5.039,5.6s6.767,3.75,6.767,3.58S144.065,182.114,144.065,182.114Z" transform="translate(-98.351 -161.711)" fill="#b78876"/>
      <path id="Path_860" data-name="Path 860" d="M143.853,189.423a1.976,1.976,0,0,1-.286.188,1.121,1.121,0,0,1-.832.081,2.685,2.685,0,0,1-1.459-2.354,3.688,3.688,0,0,1,.179-1.62,1.289,1.289,0,0,1,.77-.9.573.573,0,0,1,.68.251c.1.17.063.3.1.313s.125-.125.054-.376a.69.69,0,0,0-.277-.385.9.9,0,0,0-.627-.107,1.557,1.557,0,0,0-1.083,1.074,3.738,3.738,0,0,0-.242,1.79,2.931,2.931,0,0,0,1.79,2.623,1.2,1.2,0,0,0,1-.251C143.853,189.62,143.871,189.468,143.853,189.423Z" transform="translate(-98.541 -161.967)" fill="#a36957"/>
      <path id="Path_861" data-name="Path 861" d="M224.08,277.987s8.951-.43,10.741.385c3.1,1.352,12.316,15.807,11.851,15.807H242.4l-14.322-5.433-3.375.85Z" transform="translate(-107.277 -171.762)" fill="#b78876"/>
      <path id="Path_862" data-name="Path 862" d="M265.51,324.37s26.781,92.759,26.844,92.3-24.006,11.574-24.006,11.574L252.11,361.167Z" transform="translate(-110.218 -176.64)" fill="#263238"/>
      <path id="Path_863" data-name="Path 863" d="M269.508,439.2l25.367-12.379-1.1-3.392-25.564,12.4Z" transform="translate(-111.907 -187.032)" fill="#455a64"/>
      <path id="Path_864" data-name="Path 864" d="M265.839,402.611c-.134,0-.412-.546-.636-1.289s-.3-1.4-.161-1.432.412.537.636,1.289S265.964,402.566,265.839,402.611Z" transform="translate(-111.567 -184.563)" fill="#455a64"/>
      <path id="Path_865" data-name="Path 865" d="M267.685,408.682c-.134,0-.43-.537-.653-1.28s-.313-1.387-.188-1.432.421.537.653,1.28S267.81,408.619,267.685,408.682Z" transform="translate(-111.757 -185.2)" fill="#455a64"/>
      <path id="Path_866" data-name="Path 866" d="M269.611,414.684c-.134.045-.43-.528-.671-1.271s-.331-1.378-.206-1.423.43.528.671,1.271S269.736,414.684,269.611,414.684Z" transform="translate(-111.956 -185.832)" fill="#455a64"/>
      <path id="Path_867" data-name="Path 867" d="M271.626,420.685c-.134.045-.439-.519-.689-1.262s-.358-1.378-.224-1.423.439.519.689,1.262S271.751,420.685,271.626,420.685Z" transform="translate(-112.163 -186.462)" fill="#455a64"/>
      <path id="Path_868" data-name="Path 868" d="M273.722,426.687c-.125,0-.448-.519-.707-1.253s-.376-1.369-.242-1.414.439.51.707,1.253S273.865,426.615,273.722,426.687Z" transform="translate(-112.38 -187.094)" fill="#455a64"/>
      <path id="Path_869" data-name="Path 869" d="M275.878,432.6c-.134,0-.457-.51-.725-1.244s-.394-1.37-.269-1.414.456.51.725,1.244S276.03,432.553,275.878,432.6Z" transform="translate(-112.602 -187.715)" fill="#455a64"/>
      <path id="Path_870" data-name="Path 870" d="M273.331,432.294a4.239,4.239,0,0,1-.537-.967c-.313-.644-.743-1.584-1.235-2.757-.994-2.345-2.22-5.648-3.455-9.327s-2.273-7.044-3.008-9.479c-.34-1.146-.627-2.112-.9-2.891a4.329,4.329,0,0,1-.251-1.083,5.8,5.8,0,0,1,.43,1.02c.251.671.591,1.638,1,2.846l3.142,9.425c1.226,3.679,2.4,6.991,3.312,9.363l1.092,2.8A5.285,5.285,0,0,1,273.331,432.294Z" transform="translate(-111.46 -185.182)" fill="#455a64"/>
      <path id="Path_871" data-name="Path 871" d="M127.49,316.278c.224-4.914-2.569,26.969,21.939,27.811s74.579.474,74.579.474l-5.863,80.854h29.4l6.14-86.019s3.133-24.919-13.919-28.1c-10.67-2-77.023-2.632-77.023-2.632Z" transform="translate(-97.144 -174.993)" fill="#263238"/>
      <path id="Path_872" data-name="Path 872" d="M228.02,438.726h30.961V433.91l-30.961.045Z" transform="translate(-107.691 -188.132)" fill="#455a64"/>
      <path id="Path_873" data-name="Path 873" d="M173.91,343.735a1.221,1.221,0,0,1,.313,0l.9-.054,3.58-.161,13.292-.51,44.835-1.54h.286v.286c-.4,3.294-.743,6.776-1.029,10.311-.394,5.057-.77,9.989-1.137,14.751s-.9,9.345-1.352,13.713c-.9,8.718-1.736,16.577-2.435,23.192s-1.28,11.914-1.683,15.628c-.206,1.79-.367,3.258-.483,4.252q-.081.7-.134,1.1a2.53,2.53,0,0,1-.063.376,1.761,1.761,0,0,1,0-.376c0-.277.054-.644.09-1.11.089-1,.224-2.435.394-4.261.358-3.715.9-9.058,1.531-15.646s1.45-14.474,2.327-23.21c.43-4.368.9-8.951,1.316-13.7s.743-9.694,1.128-14.742q.43-5.371,1.038-10.338l.251.277-44.844,1.37-13.292.367-3.58.072h-.9A1.18,1.18,0,0,1,173.91,343.735Z" transform="translate(-102.014 -178.434)" fill="#455a64"/>
      <path id="Path_874" data-name="Path 874" d="M176.738,340.065c0,.134-.627.26-1.414.277s-1.414-.072-1.414-.206.627-.269,1.405-.286S176.738,339.93,176.738,340.065Z" transform="translate(-102.014 -178.264)" fill="#455a64"/>
      <path id="Path_875" data-name="Path 875" d="M183.067,339.914c0,.134-.627.26-1.414.277s-1.414-.072-1.423-.206.636-.26,1.414-.286S183.067,339.78,183.067,339.914Z" transform="translate(-102.677 -178.248)" fill="#455a64"/>
      <path id="Path_876" data-name="Path 876" d="M189.4,339.766c0,.143-.627.26-1.414.286s-1.414-.081-1.423-.215.636-.26,1.414-.277S189.4,339.631,189.4,339.766Z" transform="translate(-103.341 -178.233)" fill="#455a64"/>
      <path id="Path_877" data-name="Path 877" d="M195.727,339.616c0,.143-.627.269-1.414.286s-1.414-.081-1.423-.215.636-.26,1.414-.277S195.727,339.481,195.727,339.616Z" transform="translate(-104.005 -178.218)" fill="#455a64"/>
      <path id="Path_878" data-name="Path 878" d="M202.057,339.475c0,.134-.627.26-1.414.277s-1.414-.081-1.423-.215.636-.26,1.414-.277S202.057,339.331,202.057,339.475Z" transform="translate(-104.669 -178.202)" fill="#455a64"/>
      <path id="Path_879" data-name="Path 879" d="M208.387,339.325c0,.134-.627.26-1.414.277s-1.414-.081-1.423-.215.635-.26,1.414-.277S208.379,339.19,208.387,339.325Z" transform="translate(-105.333 -178.186)" fill="#455a64"/>
      <path id="Path_880" data-name="Path 880" d="M214.717,339.175c0,.134-.627.26-1.414.277s-1.414-.081-1.423-.215.627-.26,1.414-.277S214.673,339.04,214.717,339.175Z" transform="translate(-105.997 -178.17)" fill="#455a64"/>
      <path id="Path_881" data-name="Path 881" d="M221.047,339.025c0,.134-.627.26-1.414.277s-1.414-.072-1.423-.215.627-.26,1.414-.277S221.038,338.89,221.047,339.025Z" transform="translate(-106.661 -178.155)" fill="#455a64"/>
      <path id="Path_882" data-name="Path 882" d="M227.377,338.875c0,.134-.627.26-1.414.277s-1.414-.072-1.423-.206.627-.269,1.414-.286S227.368,338.74,227.377,338.875Z" transform="translate(-107.326 -178.139)" fill="#455a64"/>
      <path id="Path_883" data-name="Path 883" d="M233.667,338.725c0,.134-.636.26-1.414.277s-1.414-.072-1.423-.206.627-.269,1.414-.286S233.667,338.59,233.667,338.725Z" transform="translate(-107.985 -178.123)" fill="#455a64"/>
      <path id="Path_884" data-name="Path 884" d="M240.037,338.576c0,.134-.635.26-1.414.277s-1.414-.072-1.423-.206.627-.26,1.414-.277S240.028,338.441,240.037,338.576Z" transform="translate(-108.654 -178.109)" fill="#455a64"/>
      <path id="Path_885" data-name="Path 885" d="M246.367,338.426c0,.143-.636.269-1.414.286s-1.423-.081-1.423-.215.627-.26,1.414-.277S246.358,338.291,246.367,338.426Z" transform="translate(-109.318 -178.093)" fill="#455a64"/>
      <path id="Path_886" data-name="Path 886" d="M246.673,343.859c-.143,0-.188-.653-.107-1.432s.242-1.4.376-1.387.188.653.107,1.432S246.807,343.877,246.673,343.859Z" transform="translate(-109.632 -178.389)" fill="#455a64"/>
      <path id="Path_887" data-name="Path 887" d="M246.053,350.16c-.134,0-.188-.653-.107-1.432s.251-1.4.385-1.387.179.653.107,1.432S246.187,350.177,246.053,350.16Z" transform="translate(-109.567 -179.05)" fill="#455a64"/>
      <path id="Path_888" data-name="Path 888" d="M245.433,356.46c-.134,0-.188-.653-.107-1.432s.251-1.4.385-1.387.179.662.107,1.441S245.567,356.477,245.433,356.46Z" transform="translate(-109.502 -179.711)" fill="#455a64"/>
      <path id="Path_889" data-name="Path 889" d="M244.813,362.76c-.134,0-.179-.653-.107-1.432s.251-1.4.385-1.387.179.662.107,1.441S244.966,362.777,244.813,362.76Z" transform="translate(-109.438 -180.372)" fill="#455a64"/>
      <path id="Path_890" data-name="Path 890" d="M244.193,369.07c-.134,0-.179-.662-.107-1.441s.251-1.4.385-1.378.188.653.107,1.432S244.328,369.078,244.193,369.07Z" transform="translate(-109.372 -181.034)" fill="#455a64"/>
      <path id="Path_891" data-name="Path 891" d="M243.574,375.37c-.134,0-.179-.662-.1-1.441s.242-1.4.376-1.378.188.653.107,1.432S243.717,375.378,243.574,375.37Z" transform="translate(-109.308 -181.695)" fill="#455a64"/>
      <path id="Path_892" data-name="Path 892" d="M242.983,381.669c-.143,0-.188-.653-.107-1.432s.242-1.405.385-1.387.179.653.1,1.432S243.1,381.669,242.983,381.669Z" transform="translate(-109.245 -182.355)" fill="#455a64"/>
      <path id="Path_893" data-name="Path 893" d="M242.343,387.97c-.134,0-.188-.653-.107-1.432s.251-1.405.385-1.387.179.653.107,1.432S242.477,387.978,242.343,387.97Z" transform="translate(-109.178 -183.016)" fill="#455a64"/>
      <path id="Path_894" data-name="Path 894" d="M241.723,394.27c-.134,0-.179-.653-.107-1.432s.251-1.4.385-1.387.179.653.107,1.432S241.858,394.287,241.723,394.27Z" transform="translate(-109.113 -183.677)" fill="#455a64"/>
      <path id="Path_895" data-name="Path 895" d="M241.1,400.57c-.134,0-.179-.653-.107-1.432s.251-1.4.385-1.387.179.653.107,1.432S241.238,400.587,241.1,400.57Z" transform="translate(-109.048 -184.338)" fill="#455a64"/>
      <path id="Path_896" data-name="Path 896" d="M240.483,406.87c-.134,0-.179-.653-.107-1.432s.251-1.4.385-1.387.188.653.107,1.432S240.618,406.887,240.483,406.87Z" transform="translate(-108.983 -184.999)" fill="#455a64"/>
      <path id="Path_897" data-name="Path 897" d="M239.873,413.17c-.143,0-.188-.653-.107-1.432s.242-1.4.376-1.387.188.662.107,1.441S239.971,413.187,239.873,413.17Z" transform="translate(-108.919 -185.66)" fill="#455a64"/>
      <path id="Path_898" data-name="Path 898" d="M239.253,419.47c-.134,0-.188-.653-.107-1.432s.242-1.4.385-1.387.179.662.1,1.441S239.387,419.487,239.253,419.47Z" transform="translate(-108.854 -186.321)" fill="#455a64"/>
      <path id="Path_899" data-name="Path 899" d="M238.633,425.779c-.134,0-.188-.662-.107-1.441s.251-1.4.385-1.378.179.653.107,1.432S238.767,425.788,238.633,425.779Z" transform="translate(-108.789 -186.983)" fill="#455a64"/>
      <path id="Path_900" data-name="Path 900" d="M237.983,432.079c-.134,0-.179-.653-.107-1.432s.251-1.405.385-1.387.179.653.107,1.432S238.145,432.088,237.983,432.079Z" transform="translate(-108.721 -187.644)" fill="#455a64"/>
      <path id="Path_901" data-name="Path 901" d="M237.673,435.73c-.134,0-.242-.063-.233-.107s.116-.081.251-.063.242.063.242.107S237.807,435.738,237.673,435.73Z" transform="translate(-108.679 -188.304)" fill="#455a64"/>
      <path id="Path_902" data-name="Path 902" d="M239.309,344.56a8.239,8.239,0,0,1-1.924,2.1,8.582,8.582,0,0,1-2.265,1.736A16.666,16.666,0,0,1,239.309,344.56Z" transform="translate(-108.435 -178.758)" fill="#263238"/>
      <path id="Path_903" data-name="Path 903" d="M241.305,345.78a13.41,13.41,0,0,1-3.16,1.692,13.126,13.126,0,0,1-3.366,1.235,13.41,13.41,0,0,1,3.16-1.692A13.272,13.272,0,0,1,241.305,345.78Z" transform="translate(-108.4 -178.886)" fill="#263238"/>
      <path id="Path_904" data-name="Path 904" d="M170.037,267.661s-3-32.125-8.324-46.187l1.056-.8-1.584-5.541-19.925-2.417.3,4.323a14.206,14.206,0,0,0-6.812,6.48c-7.161,15.163-3.58,32.868-7.42,65.673,0,0-4.475,15.387.143,20.2l43.475-10.132-2.05-9.918c18.976-.358,50.179-3.849,50.179-3.849l-.9-17.956s-46.625.277-48.147.116" transform="translate(-96.924 -164.927)" fill="#455a64"/>
      <path id="Path_905" data-name="Path 905" d="M165.324,215.39a15.065,15.065,0,0,1,1.441,3.58,6.293,6.293,0,0,1,.394,1.522,1.071,1.071,0,0,1-.251.743,1.289,1.289,0,0,1-.537.376c-.752.233-1.182.072-1.182,0s.465-.081,1.029-.349a.832.832,0,0,0,.492-.788,9.46,9.46,0,0,0-.412-1.387A15.357,15.357,0,0,1,165.324,215.39Z" transform="translate(-101.099 -165.208)" fill="#e0e0e0"/>
      <path id="Path_906" data-name="Path 906" d="M166.454,242.082c0,.143-8.056.251-17.9.251s-17.9-.107-17.9-.251,8.056-.242,17.9-.242S166.454,241.983,166.454,242.082Z" transform="translate(-97.476 -167.982)" fill="#263238"/>
      <path id="Path_907" data-name="Path 907" d="M164.842,231.972c0,.134-7.107.251-15.861.251s-15.861-.116-15.861-.251,7.1-.242,15.861-.242S164.842,231.837,164.842,231.972Z" transform="translate(-97.735 -166.922)" fill="#263238"/>
      <path id="Path_908" data-name="Path 908" d="M162.565,223.081c0,.134-5.872.242-13.122.242s-13.113-.107-13.113-.242,5.872-.251,13.113-.251S162.565,222.982,162.565,223.081Z" transform="translate(-98.072 -165.988)" fill="#263238"/>
      <path id="Path_909" data-name="Path 909" d="M162.994,216.8a99.375,99.375,0,0,1-10.052.251,99.374,99.374,0,0,1-10.052-.251c0-.134,4.475-.242,10.052-.242S162.994,216.667,162.994,216.8Z" transform="translate(-98.76 -165.33)" fill="#263238"/>
      <path id="Path_910" data-name="Path 910" d="M167.622,251.811c0,.134-8.477.242-18.931.242s-18.931-.107-18.931-.242,8.477-.251,18.931-.251S167.622,251.667,167.622,251.811Z" transform="translate(-97.383 -169.002)" fill="#263238"/>
      <path id="Path_911" data-name="Path 911" d="M169.164,261.581c0,.134-8.817.242-19.692.242s-19.692-.107-19.692-.242,8.817-.251,19.692-.251S169.164,261.446,169.164,261.581Z" transform="translate(-97.385 -170.027)" fill="#263238"/>
      <path id="Path_912" data-name="Path 912" d="M170.129,270.582c0,.143-9.04.251-20.184.251s-20.184-.107-20.184-.251,9.04-.242,20.184-.242S170.129,270.447,170.129,270.582Z" transform="translate(-97.383 -170.972)" fill="#263238"/>
      <path id="Path_913" data-name="Path 913" d="M214.1,280.431c0,.134-19.066.242-42.58.242s-42.589-.107-42.589-.242,19.065-.251,42.589-.251S214.1,280.3,214.1,280.431Z" transform="translate(-97.295 -172.004)" fill="#263238"/>
      <path id="Path_914" data-name="Path 914" d="M214.393,288.312c0,.143-19.209.251-42.9.251s-42.911-.107-42.911-.251,19.209-.242,42.911-.242S214.393,288.177,214.393,288.312Z" transform="translate(-97.259 -172.832)" fill="#263238"/>
      <path id="Path_915" data-name="Path 915" d="M168.434,298.032c0,.143-9.175.251-20.5.251s-20.507-.107-20.507-.251,9.175-.242,20.507-.242S168.434,297.9,168.434,298.032Z" transform="translate(-97.138 -173.852)" fill="#263238"/>
      <path id="Path_916" data-name="Path 916" d="M170.346,307.052c0,.134-9.98.251-22.288.251s-22.288-.116-22.288-.251,9.98-.242,22.288-.242S170.346,306.917,170.346,307.052Z" transform="translate(-96.964 -174.798)" fill="#263238"/>
      <path id="Path_917" data-name="Path 917" d="M133.141,301.275c-.143,0-.251-15.655-.251-34.962s.107-34.962.251-34.962.242,15.655.242,34.962S133.275,301.275,133.141,301.275Z" transform="translate(-97.711 -166.882)" fill="#263238"/>
      <path id="Path_918" data-name="Path 918" d="M145.152,298.49c-.134,0-.242-19.137-.242-42.741s.081-42.75.242-42.75.251,19.128.251,42.741S145.295,298.49,145.152,298.49Z" transform="translate(-98.972 -164.957)" fill="#263238"/>
      <path id="Path_919" data-name="Path 919" d="M158.422,297.429c-.134,0-.242-18.448-.242-41.174s.107-41.174.242-41.174.251,18.448.251,41.174S158.565,297.429,158.422,297.429Z" transform="translate(-100.364 -165.175)" fill="#263238"/>
      <path id="Path_920" data-name="Path 920" d="M169.572,301.858c-.134,0-.242-14.483-.242-32.34s.107-32.349.242-32.349.251,14.483.251,32.349S169.706,301.858,169.572,301.858Z" transform="translate(-101.534 -167.492)" fill="#263238"/>
      <path id="Path_921" data-name="Path 921" d="M181.336,274.05a19.816,19.816,0,0,1,.1,3.151c0,1.942,0,4.619-.107,7.572s-.161,5.639-.251,7.572a21.984,21.984,0,0,1-.251,3.142,19.594,19.594,0,0,1-.1-3.142c0-1.942,0-4.619.107-7.581s.161-5.639.251-7.581A19.132,19.132,0,0,1,181.336,274.05Z" transform="translate(-102.727 -171.361)" fill="#263238"/>
      <path id="Path_922" data-name="Path 922" d="M193.929,274.47a18.6,18.6,0,0,1,.1,2.954c0,1.79,0,4.323-.09,7.089s-.161,5.281-.242,7.1a16.731,16.731,0,0,1-.251,2.936,18.381,18.381,0,0,1-.1-2.936c0-1.79,0-4.332.1-7.107s.152-5.281.242-7.1A16.3,16.3,0,0,1,193.929,274.47Z" transform="translate(-104.051 -171.405)" fill="#263238"/>
      <path id="Path_923" data-name="Path 923" d="M206.451,274.25a15.694,15.694,0,0,1,.107,2.855c0,1.79,0,4.2-.09,6.883s-.152,5.12-.242,6.874a15.276,15.276,0,0,1-.242,2.855,17.784,17.784,0,0,1-.107-2.846c0-1.79,0-4.2.1-6.883s.152-5.129.233-6.883A17.539,17.539,0,0,1,206.451,274.25Z" transform="translate(-105.366 -171.382)" fill="#263238"/>
      <path id="Path_924" data-name="Path 924" d="M219.022,273.9a14.581,14.581,0,0,1,.107,2.766c0,1.71,0,4.073-.09,6.677s-.143,4.968-.233,6.668a16.182,16.182,0,0,1-.233,2.766,14.961,14.961,0,0,1-.116-2.766c0-1.71,0-4.073.09-6.677s.152-4.977.233-6.677A15.219,15.219,0,0,1,219.022,273.9Z" transform="translate(-106.685 -171.346)" fill="#263238"/>
      <path id="Path_925" data-name="Path 925" d="M170.91,278.023a9.3,9.3,0,0,1,4.171-4.663,24.326,24.326,0,0,1-2.121,2.3A24.981,24.981,0,0,1,170.91,278.023Z" transform="translate(-101.699 -171.289)" fill="#263238"/>
      <path id="Path_926" data-name="Path 926" d="M173.768,278.238a4.915,4.915,0,0,1,1.79-4.878c.107.1-.644,1.011-1.128,2.354S173.965,278.238,173.768,278.238Z" transform="translate(-101.988 -171.289)" fill="#263238"/>
      <path id="Path_927" data-name="Path 927" d="M224.817,291.9a76.608,76.608,0,0,1-1.02-8.584,77.392,77.392,0,0,1-.537-8.638,72.936,72.936,0,0,1,1.029,8.593A75.755,75.755,0,0,1,224.817,291.9Z" transform="translate(-107.191 -171.427)" fill="#263238"/>
      <path id="Path_928" data-name="Path 928" d="M225.553,278.436a1.426,1.426,0,0,0-.286.689.892.892,0,0,0,.224.653.672.672,0,0,0,.752.1.7.7,0,0,0,.448-.618.894.894,0,0,0-.331-.609c-.349-.277-.68-.188-.7-.26s.331-.322.9,0a1.127,1.127,0,0,1,.591.9,1.11,1.11,0,0,1-.7,1.092,1.129,1.129,0,0,1-1.289-.233,1.147,1.147,0,0,1-.224-1.029C225.1,278.463,225.562,278.373,225.553,278.436Z" transform="translate(-107.363 -171.8)" fill="#263238"/>
      <path id="Path_929" data-name="Path 929" d="M172.05,269.026h.224l.653.054c.582.063,1.441.116,2.569.152,2.256.089,5.568.134,9.783.1,8.423-.054,20.462-.367,34.909-.9h.206v.206c.286,5.576.591,11.636.9,18.063v.206H221.1c-2.291.43-4.61.609-6.982.85l-7.232.627c-4.914.4-9.971.779-15.118,1.146L172.847,290.8h0a22.947,22.947,0,0,1-14.536-5.934,17.773,17.773,0,0,1-4.216-6.2,44.214,44.214,0,0,1-2.121-6.821c-2.211-8.951-3.58-17.105-4.7-23.872-.537-3.383-.994-6.436-1.378-9.1a55.444,55.444,0,0,1-.8-6.865,8.438,8.438,0,0,1,.9-4.225,4.256,4.256,0,0,1,.9-1.19,8.384,8.384,0,0,0-.832,1.235,8.549,8.549,0,0,0-.788,4.18,57.677,57.677,0,0,0,.9,6.83c.421,2.685.9,5.711,1.45,9.094,1.128,6.749,2.56,14.85,4.789,23.81a44.961,44.961,0,0,0,2.121,6.758,17.3,17.3,0,0,0,4.135,6.042c3.58,3.518,8.852,5.442,14.241,5.791h0l18.913-1.289,15.109-1.137,7.232-.618c2.354-.242,4.717-.421,6.91-.832l-.179.242c-.3-6.4-.591-12.487-.9-18.072l.224.206c-14.438.528-26.477.779-34.909.761-4.216,0-7.528-.081-9.783-.215-1.128-.063-2-.134-2.578-.224l-.653-.081A.886.886,0,0,1,172.05,269.026Z" transform="translate(-98.991 -166.382)" fill="#263238"/>
      <path id="Path_930" data-name="Path 930" d="M174.186,269.724a8.183,8.183,0,0,1-.465-1.405c-.26-.9-.618-2.238-1.047-3.885-.9-3.285-1.924-7.859-3.07-12.907s-2.193-9.622-2.981-12.925l-.9-3.912a7.544,7.544,0,0,1-.277-1.45,9.264,9.264,0,0,1,.465,1.405c.277.9.636,2.229,1.074,3.876.9,3.276,1.987,7.841,3.133,12.9s2.086,9.542,2.891,12.934c.358,1.593.662,2.909.9,3.921A9.844,9.844,0,0,1,174.186,269.724Z" transform="translate(-101.127 -167.08)" fill="#263238"/>
      <path id="Path_931" data-name="Path 931" d="M163.105,215.81a4,4,0,0,1-.1.985c-.09.636-.233,1.54-.43,2.685a14.84,14.84,0,0,1-.376,1.853,1.333,1.333,0,0,1-.806.9,2.348,2.348,0,0,1-1.2,0c-1.477-.3-3.088-.7-4.771-1.155-3.357-.9-6.346-1.889-8.521-2.56l-2.569-.806a3.878,3.878,0,0,1-.9-.349,3.684,3.684,0,0,1,.976.161c.627.143,1.522.358,2.623.662,2.2.582,5.209,1.495,8.557,2.417,1.674.456,3.267.9,4.735,1.19a1.962,1.962,0,0,0,.976.063.9.9,0,0,0,.555-.6c.2-.573.277-1.235.412-1.79.233-1.11.439-2.005.582-2.632A3.641,3.641,0,0,1,163.105,215.81Z" transform="translate(-98.818 -165.252)" fill="#263238"/>
      <path id="Path_932" data-name="Path 932" d="M147.91,354.25l6.257,84.918,2.614-.609L155.8,356.04Z" transform="translate(-99.287 -179.775)" fill="#263238"/>
      <path id="Path_933" data-name="Path 933" d="M116.063,357.55l-19,81.865H100.5l27.2-81.865Z" transform="translate(-93.952 -180.121)" fill="#263238"/>
      <path id="Path_934" data-name="Path 934" d="M174.44,357.55l25.922,81.865h2.775l-20.6-81.865Z" transform="translate(-102.07 -180.121)" fill="#263238"/>
      <path id="Path_935" data-name="Path 935" d="M171.512,363.69,113.42,401.651v2.077l59.712-40.038Z" transform="translate(-95.668 -180.765)" fill="#263238"/>
      <path id="Path_936" data-name="Path 936" d="M123.25,363.473l62.943,42.356v-3.24l-61.1-40.968Z" transform="translate(-96.7 -180.548)" fill="#263238"/>
      <path id="Path_937" data-name="Path 937" d="M108.446,357.837l74.848-1.352a4.789,4.789,0,0,0,4.7-4.877c0-.165-.015-.329-.035-.493h0a4.771,4.771,0,0,0-4.825-4.225l-75.913,1.217Z" transform="translate(-95.018 -179.003)" fill="#3a9848"/>
      <g id="Group_412" data-name="Group 412" transform="translate(12.202 167.887)" opacity="0.2">
        <path id="Path_938" data-name="Path 938" d="M108.446,357.837l74.848-1.352a4.789,4.789,0,0,0,4.7-4.877c0-.165-.015-.329-.035-.493h0a4.771,4.771,0,0,0-4.825-4.225l-75.913,1.217Z" transform="translate(-107.22 -346.889)"/>
      </g>
      <path id="Path_939" data-name="Path 939" d="M99.4,289.039l7.555,57.859,59.014-1.405-.152-35.141a9.849,9.849,0,0,0-10.741-9.953l-45,4.064-5.926-61.323-5.979-.51a4.208,4.208,0,0,0-4.475,4.762Z" transform="translate(-93.595 -168.064)" fill="#3a9848"/>
    </g>
  </g>
</svg>
